<svg xmlns="http://www.w3.org/2000/svg" width="24.164" height="33.002" viewBox="0 0 24.164 33.002">
  <g id="bag" transform="translate(-68.557)">
    <g id="Group_1" data-name="Group 1" transform="translate(68.557)">
      <path id="Path_1" data-name="Path 1" d="M92.7,28.5,90.949,9.189a1.033,1.033,0,0,0-1.029-.939H86.826V6.188a6.188,6.188,0,1,0-12.376,0V8.251H71.356a1.03,1.03,0,0,0-1.027.939L68.574,28.5A4.125,4.125,0,0,0,72.683,33H88.6A4.125,4.125,0,0,0,92.7,28.5ZM76.513,6.188a4.125,4.125,0,1,1,8.251,0V8.251H76.513ZM90.118,30.269a2.047,2.047,0,0,1-1.524.67H72.683a2.062,2.062,0,0,1-2.052-2.25L72.3,10.313H74.45v3.094a1.031,1.031,0,1,0,2.063,0V10.313h8.251v3.094a1.031,1.031,0,0,0,2.063,0V10.313h2.151l1.671,18.378A2.037,2.037,0,0,1,90.118,30.269Z" transform="translate(-68.557 0)" fill="#d0cdcd"/>
    </g>
  </g>
</svg>
