<svg xmlns="http://www.w3.org/2000/svg" width="75.258" height="75.258" viewBox="0 0 75.258 75.258">
  <g id="close" transform="translate(-19.763 -19.763)">
    <path id="Path_6" data-name="Path 6" d="M38.675,112.925a1.008,1.008,0,0,1-.714-1.721L111.2,37.962a1.008,1.008,0,1,1,1.425,1.425L39.388,112.629A1.008,1.008,0,0,1,38.675,112.925Z" transform="translate(-17.903 -17.903)"/>
    <path id="Path_7" data-name="Path 7" d="M111.917,112.925a1.008,1.008,0,0,1-.712-.3L37.961,39.388a1.008,1.008,0,1,1,1.426-1.425L112.629,111.2a1.008,1.008,0,0,1-.713,1.721Z" transform="translate(-17.903 -17.903)"/>
  </g>
</svg>
