<svg xmlns="http://www.w3.org/2000/svg" width="29.65" height="20.176" viewBox="0 0 29.65 20.176">
  <g id="right-arrow" transform="translate(0 -132)">
    <g id="Group_6" data-name="Group 6" transform="translate(0 132)">
      <path id="Path_4" data-name="Path 4" d="M29.311,140.936v0l-6.052-8.461a.942.942,0,0,0-1.638.006,2.121,2.121,0,0,0,0,2.3l4.063,5.681H1.158c-.64,0-1.158.728-1.158,1.627s.519,1.627,1.158,1.627H25.687L21.624,149.4a2.121,2.121,0,0,0,0,2.3.942.942,0,0,0,1.638.006l6.052-8.461v0A2.122,2.122,0,0,0,29.311,140.936Z" transform="translate(0 -132)" fill="#fff"/>
    </g>
  </g>
</svg>
